<svg xmlns="http://www.w3.org/2000/svg" xmlns:xlink="http://www.w3.org/1999/xlink" width="1920" height="1080" viewBox="0 0 1920 1080">
  <defs>
    <clipPath id="clip-path">
      <rect width="1920" height="1080" fill="none"/>
    </clipPath>
  </defs>
  <g id="Repeat_Grid_2" data-name="Repeat Grid 2" opacity="0.42" clip-path="url(#clip-path)">
    <g transform="translate(-712 -220)">
      <g id="Group_93" data-name="Group 93" transform="translate(501 66)" opacity="0.14">
        <circle id="Ellipse_6" data-name="Ellipse 6" cx="119" cy="119" r="119" transform="translate(211 229)" fill="#52004a" opacity="0.33"/>
        <circle id="Ellipse_7" data-name="Ellipse 7" cx="60" cy="60" r="60" transform="translate(462 154)" fill="#52004a" opacity="0.33"/>
        <circle id="Ellipse_8" data-name="Ellipse 8" cx="51" cy="51" r="51" transform="translate(330 531)" fill="#52004a" opacity="0.33"/>
      </g>
    </g>
    <g transform="translate(-321 -220)">
      <g id="Group_93-2" data-name="Group 93" transform="translate(501 66)" opacity="0.14">
        <circle id="Ellipse_6-2" data-name="Ellipse 6" cx="119" cy="119" r="119" transform="translate(211 229)" fill="#52004a" opacity="0.33"/>
        <circle id="Ellipse_7-2" data-name="Ellipse 7" cx="60" cy="60" r="60" transform="translate(462 154)" fill="#52004a" opacity="0.33"/>
        <circle id="Ellipse_8-2" data-name="Ellipse 8" cx="51" cy="51" r="51" transform="translate(330 531)" fill="#52004a" opacity="0.33"/>
      </g>
    </g>
    <g transform="translate(70 -220)">
      <g id="Group_93-3" data-name="Group 93" transform="translate(501 66)" opacity="0.14">
        <circle id="Ellipse_6-3" data-name="Ellipse 6" cx="119" cy="119" r="119" transform="translate(211 229)" fill="#52004a" opacity="0.33"/>
        <circle id="Ellipse_7-3" data-name="Ellipse 7" cx="60" cy="60" r="60" transform="translate(462 154)" fill="#52004a" opacity="0.33"/>
        <circle id="Ellipse_8-3" data-name="Ellipse 8" cx="51" cy="51" r="51" transform="translate(330 531)" fill="#52004a" opacity="0.33"/>
      </g>
    </g>
    <g transform="translate(461 -220)">
      <g id="Group_93-4" data-name="Group 93" transform="translate(501 66)" opacity="0.14">
        <circle id="Ellipse_6-4" data-name="Ellipse 6" cx="119" cy="119" r="119" transform="translate(211 229)" fill="#52004a" opacity="0.33"/>
        <circle id="Ellipse_7-4" data-name="Ellipse 7" cx="60" cy="60" r="60" transform="translate(462 154)" fill="#52004a" opacity="0.33"/>
        <circle id="Ellipse_8-4" data-name="Ellipse 8" cx="51" cy="51" r="51" transform="translate(330 531)" fill="#52004a" opacity="0.33"/>
      </g>
    </g>
    <g transform="translate(852 -220)">
      <g id="Group_93-5" data-name="Group 93" transform="translate(501 66)" opacity="0.14">
        <circle id="Ellipse_6-5" data-name="Ellipse 6" cx="119" cy="119" r="119" transform="translate(211 229)" fill="#52004a" opacity="0.33"/>
        <circle id="Ellipse_7-5" data-name="Ellipse 7" cx="60" cy="60" r="60" transform="translate(462 154)" fill="#52004a" opacity="0.33"/>
        <circle id="Ellipse_8-5" data-name="Ellipse 8" cx="51" cy="51" r="51" transform="translate(330 531)" fill="#52004a" opacity="0.33"/>
      </g>
    </g>
    <g transform="translate(-712 279)">
      <g id="Group_93-6" data-name="Group 93" transform="translate(501 66)" opacity="0.14">
        <circle id="Ellipse_6-6" data-name="Ellipse 6" cx="119" cy="119" r="119" transform="translate(211 229)" fill="#52004a" opacity="0.33"/>
        <circle id="Ellipse_7-6" data-name="Ellipse 7" cx="60" cy="60" r="60" transform="translate(462 154)" fill="#52004a" opacity="0.33"/>
        <circle id="Ellipse_8-6" data-name="Ellipse 8" cx="51" cy="51" r="51" transform="translate(330 531)" fill="#52004a" opacity="0.33"/>
      </g>
    </g>
    <g transform="translate(-321 279)">
      <g id="Group_93-7" data-name="Group 93" transform="translate(501 66)" opacity="0.14">
        <circle id="Ellipse_6-7" data-name="Ellipse 6" cx="119" cy="119" r="119" transform="translate(211 229)" fill="#52004a" opacity="0.33"/>
        <circle id="Ellipse_7-7" data-name="Ellipse 7" cx="60" cy="60" r="60" transform="translate(462 154)" fill="#52004a" opacity="0.33"/>
        <circle id="Ellipse_8-7" data-name="Ellipse 8" cx="51" cy="51" r="51" transform="translate(330 531)" fill="#52004a" opacity="0.33"/>
      </g>
    </g>
    <g transform="translate(70 279)">
      <g id="Group_93-8" data-name="Group 93" transform="translate(501 66)" opacity="0.14">
        <circle id="Ellipse_6-8" data-name="Ellipse 6" cx="119" cy="119" r="119" transform="translate(211 229)" fill="#52004a" opacity="0.33"/>
        <circle id="Ellipse_7-8" data-name="Ellipse 7" cx="60" cy="60" r="60" transform="translate(462 154)" fill="#52004a" opacity="0.33"/>
        <circle id="Ellipse_8-8" data-name="Ellipse 8" cx="51" cy="51" r="51" transform="translate(330 531)" fill="#52004a" opacity="0.33"/>
      </g>
    </g>
    <g transform="translate(461 279)">
      <g id="Group_93-9" data-name="Group 93" transform="translate(501 66)" opacity="0.14">
        <circle id="Ellipse_6-9" data-name="Ellipse 6" cx="119" cy="119" r="119" transform="translate(211 229)" fill="#52004a" opacity="0.33"/>
        <circle id="Ellipse_7-9" data-name="Ellipse 7" cx="60" cy="60" r="60" transform="translate(462 154)" fill="#52004a" opacity="0.33"/>
        <circle id="Ellipse_8-9" data-name="Ellipse 8" cx="51" cy="51" r="51" transform="translate(330 531)" fill="#52004a" opacity="0.33"/>
      </g>
    </g>
    <g transform="translate(852 279)">
      <g id="Group_93-10" data-name="Group 93" transform="translate(501 66)" opacity="0.14">
        <circle id="Ellipse_6-10" data-name="Ellipse 6" cx="119" cy="119" r="119" transform="translate(211 229)" fill="#52004a" opacity="0.33"/>
        <circle id="Ellipse_7-10" data-name="Ellipse 7" cx="60" cy="60" r="60" transform="translate(462 154)" fill="#52004a" opacity="0.33"/>
        <circle id="Ellipse_8-10" data-name="Ellipse 8" cx="51" cy="51" r="51" transform="translate(330 531)" fill="#52004a" opacity="0.33"/>
      </g>
    </g>
    <g transform="translate(-712 778)">
      <g id="Group_93-11" data-name="Group 93" transform="translate(501 66)" opacity="0.14">
        <circle id="Ellipse_6-11" data-name="Ellipse 6" cx="119" cy="119" r="119" transform="translate(211 229)" fill="#52004a" opacity="0.33"/>
        <circle id="Ellipse_7-11" data-name="Ellipse 7" cx="60" cy="60" r="60" transform="translate(462 154)" fill="#52004a" opacity="0.33"/>
        <circle id="Ellipse_8-11" data-name="Ellipse 8" cx="51" cy="51" r="51" transform="translate(330 531)" fill="#52004a" opacity="0.33"/>
      </g>
    </g>
    <g transform="translate(-321 778)">
      <g id="Group_93-12" data-name="Group 93" transform="translate(501 66)" opacity="0.14">
        <circle id="Ellipse_6-12" data-name="Ellipse 6" cx="119" cy="119" r="119" transform="translate(211 229)" fill="#52004a" opacity="0.33"/>
        <circle id="Ellipse_7-12" data-name="Ellipse 7" cx="60" cy="60" r="60" transform="translate(462 154)" fill="#52004a" opacity="0.33"/>
        <circle id="Ellipse_8-12" data-name="Ellipse 8" cx="51" cy="51" r="51" transform="translate(330 531)" fill="#52004a" opacity="0.33"/>
      </g>
    </g>
    <g transform="translate(70 778)">
      <g id="Group_93-13" data-name="Group 93" transform="translate(501 66)" opacity="0.14">
        <circle id="Ellipse_6-13" data-name="Ellipse 6" cx="119" cy="119" r="119" transform="translate(211 229)" fill="#52004a" opacity="0.33"/>
        <circle id="Ellipse_7-13" data-name="Ellipse 7" cx="60" cy="60" r="60" transform="translate(462 154)" fill="#52004a" opacity="0.33"/>
        <circle id="Ellipse_8-13" data-name="Ellipse 8" cx="51" cy="51" r="51" transform="translate(330 531)" fill="#52004a" opacity="0.33"/>
      </g>
    </g>
    <g transform="translate(461 778)">
      <g id="Group_93-14" data-name="Group 93" transform="translate(501 66)" opacity="0.14">
        <circle id="Ellipse_6-14" data-name="Ellipse 6" cx="119" cy="119" r="119" transform="translate(211 229)" fill="#52004a" opacity="0.33"/>
        <circle id="Ellipse_7-14" data-name="Ellipse 7" cx="60" cy="60" r="60" transform="translate(462 154)" fill="#52004a" opacity="0.33"/>
        <circle id="Ellipse_8-14" data-name="Ellipse 8" cx="51" cy="51" r="51" transform="translate(330 531)" fill="#52004a" opacity="0.33"/>
      </g>
    </g>
    <g transform="translate(852 778)">
      <g id="Group_93-15" data-name="Group 93" transform="translate(501 66)" opacity="0.14">
        <circle id="Ellipse_6-15" data-name="Ellipse 6" cx="119" cy="119" r="119" transform="translate(211 229)" fill="#52004a" opacity="0.33"/>
        <circle id="Ellipse_7-15" data-name="Ellipse 7" cx="60" cy="60" r="60" transform="translate(462 154)" fill="#52004a" opacity="0.33"/>
        <circle id="Ellipse_8-15" data-name="Ellipse 8" cx="51" cy="51" r="51" transform="translate(330 531)" fill="#52004a" opacity="0.33"/>
      </g>
    </g>
  </g>
</svg>
